<?xml version="1.0" encoding="UTF-8" standalone="no"?>
<!DOCTYPE svg PUBLIC "-//W3C//DTD SVG 1.1//EN"
 "http://www.w3.org/Graphics/SVG/1.1/DTD/svg11.dtd">
<!-- Generated by graphviz version 2.49.3 (20211023.0002)
 -->
<!-- Title: G Pages: 1 -->
<svg width="366pt" height="404pt"
 viewBox="0.00 0.00 366.45 404.00" xmlns="http://www.w3.org/2000/svg" xmlns:xlink="http://www.w3.org/1999/xlink">
<g id="graph0" class="graph" transform="scale(1 1) rotate(0) translate(4 400)">
<title>G</title>
<polygon fill="white" stroke="transparent" points="-4,4 -4,-400 362.45,-400 362.45,4 -4,4"/>
<!-- Main -->
<g id="node1" class="node">
<title>Main</title>
<ellipse fill="none" stroke="black" cx="187.45" cy="-378" rx="29.8" ry="18"/>
<text text-anchor="middle" x="187.45" y="-374.3" font-family="Times,serif" font-size="14.00">Main</text>
</g>
<!-- Function_main_4880 -->
<g id="node2" class="node">
<title>Function_main_4880</title>
<ellipse fill="none" stroke="black" cx="187.45" cy="-306" rx="42.79" ry="18"/>
<text text-anchor="middle" x="187.45" y="-302.3" font-family="Times,serif" font-size="14.00">Function</text>
</g>
<!-- Main&#45;&gt;Function_main_4880 -->
<g id="edge11" class="edge">
<title>Main&#45;&gt;Function_main_4880</title>
<path fill="none" stroke="black" d="M187.45,-359.7C187.45,-351.98 187.45,-342.71 187.45,-334.11"/>
<polygon fill="black" stroke="black" points="190.95,-334.1 187.45,-324.1 183.95,-334.1 190.95,-334.1"/>
</g>
<!-- FunctionCall -->
<g id="node3" class="node">
<title>FunctionCall</title>
<ellipse fill="none" stroke="black" cx="187.45" cy="-234" rx="81.49" ry="18"/>
<text text-anchor="middle" x="187.45" y="-230.3" font-family="Times,serif" font-size="14.00">FunctionCall_9347</text>
</g>
<!-- Function_main_4880&#45;&gt;FunctionCall -->
<g id="edge1" class="edge">
<title>Function_main_4880&#45;&gt;FunctionCall</title>
<path fill="none" stroke="black" d="M187.45,-287.7C187.45,-279.98 187.45,-270.71 187.45,-262.11"/>
<polygon fill="black" stroke="black" points="190.95,-262.1 187.45,-252.1 183.95,-262.1 190.95,-262.1"/>
</g>
<!-- WriteLine_9347 -->
<g id="node4" class="node">
<title>WriteLine_9347</title>
<ellipse fill="none" stroke="black" cx="47.45" cy="-162" rx="47.39" ry="18"/>
<text text-anchor="middle" x="47.45" y="-158.3" font-family="Times,serif" font-size="14.00">WriteLine</text>
</g>
<!-- FunctionCall&#45;&gt;WriteLine_9347 -->
<g id="edge2" class="edge">
<title>FunctionCall&#45;&gt;WriteLine_9347</title>
<path fill="none" stroke="black" d="M156.03,-217.29C134.72,-206.64 106.49,-192.52 84.15,-181.35"/>
<polygon fill="black" stroke="black" points="85.48,-178.11 74.97,-176.76 82.35,-184.37 85.48,-178.11"/>
</g>
<!-- (_9347 -->
<g id="node5" class="node">
<title>(_9347</title>
<ellipse fill="none" stroke="black" cx="139.45" cy="-162" rx="27" ry="18"/>
<text text-anchor="middle" x="139.45" y="-158.3" font-family="Times,serif" font-size="14.00">(</text>
</g>
<!-- FunctionCall&#45;&gt;(_9347 -->
<g id="edge3" class="edge">
<title>FunctionCall&#45;&gt;(_9347</title>
<path fill="none" stroke="black" d="M175.83,-216.05C169.88,-207.38 162.53,-196.67 156,-187.15"/>
<polygon fill="black" stroke="black" points="158.84,-185.1 150.3,-178.83 153.07,-189.06 158.84,-185.1"/>
</g>
<!-- Expression_4935 -->
<g id="node6" class="node">
<title>Expression_4935</title>
<ellipse fill="none" stroke="black" cx="235.45" cy="-162" rx="51.19" ry="18"/>
<text text-anchor="middle" x="235.45" y="-158.3" font-family="Times,serif" font-size="14.00">Expression</text>
</g>
<!-- FunctionCall&#45;&gt;Expression_4935 -->
<g id="edge9" class="edge">
<title>FunctionCall&#45;&gt;Expression_4935</title>
<path fill="none" stroke="black" d="M199.07,-216.05C204.78,-207.71 211.79,-197.49 218.13,-188.25"/>
<polygon fill="black" stroke="black" points="221.16,-190.02 223.93,-179.79 215.39,-186.06 221.16,-190.02"/>
</g>
<!-- )_9347 -->
<g id="node12" class="node">
<title>)_9347</title>
<ellipse fill="none" stroke="black" cx="331.45" cy="-162" rx="27" ry="18"/>
<text text-anchor="middle" x="331.45" y="-158.3" font-family="Times,serif" font-size="14.00">)</text>
</g>
<!-- FunctionCall&#45;&gt;)_9347 -->
<g id="edge10" class="edge">
<title>FunctionCall&#45;&gt;)_9347</title>
<path fill="none" stroke="black" d="M219.76,-217.29C243.96,-205.53 276.85,-189.54 300.67,-177.96"/>
<polygon fill="black" stroke="black" points="302.48,-180.97 309.95,-173.45 299.42,-174.67 302.48,-180.97"/>
</g>
<!-- Value_4935_6656 -->
<g id="node7" class="node">
<title>Value_4935_6656</title>
<ellipse fill="none" stroke="black" cx="159.45" cy="-90" rx="31.4" ry="18"/>
<text text-anchor="middle" x="159.45" y="-86.3" font-family="Times,serif" font-size="14.00">Value</text>
</g>
<!-- Expression_4935&#45;&gt;Value_4935_6656 -->
<g id="edge4" class="edge">
<title>Expression_4935&#45;&gt;Value_4935_6656</title>
<path fill="none" stroke="black" d="M217.82,-144.76C207.42,-135.18 194.12,-122.94 182.85,-112.55"/>
<polygon fill="black" stroke="black" points="185.15,-109.92 175.42,-105.72 180.41,-115.07 185.15,-109.92"/>
</g>
<!-- +_4935 -->
<g id="node9" class="node">
<title>+_4935</title>
<ellipse fill="none" stroke="black" cx="235.45" cy="-90" rx="27" ry="18"/>
<text text-anchor="middle" x="235.45" y="-86.3" font-family="Times,serif" font-size="14.00">+</text>
</g>
<!-- Expression_4935&#45;&gt;+_4935 -->
<g id="edge6" class="edge">
<title>Expression_4935&#45;&gt;+_4935</title>
<path fill="none" stroke="black" d="M235.45,-143.7C235.45,-135.98 235.45,-126.71 235.45,-118.11"/>
<polygon fill="black" stroke="black" points="238.95,-118.1 235.45,-108.1 231.95,-118.1 238.95,-118.1"/>
</g>
<!-- Value_4935_8131 -->
<g id="node10" class="node">
<title>Value_4935_8131</title>
<ellipse fill="none" stroke="black" cx="311.45" cy="-90" rx="31.4" ry="18"/>
<text text-anchor="middle" x="311.45" y="-86.3" font-family="Times,serif" font-size="14.00">Value</text>
</g>
<!-- Expression_4935&#45;&gt;Value_4935_8131 -->
<g id="edge7" class="edge">
<title>Expression_4935&#45;&gt;Value_4935_8131</title>
<path fill="none" stroke="black" d="M253.07,-144.76C263.48,-135.18 276.77,-122.94 288.05,-112.55"/>
<polygon fill="black" stroke="black" points="290.48,-115.07 295.47,-105.72 285.74,-109.92 290.48,-115.07"/>
</g>
<!-- 3_4935_6656 -->
<g id="node8" class="node">
<title>3_4935_6656</title>
<ellipse fill="none" stroke="black" cx="159.45" cy="-18" rx="27" ry="18"/>
<text text-anchor="middle" x="159.45" y="-14.3" font-family="Times,serif" font-size="14.00">3</text>
</g>
<!-- Value_4935_6656&#45;&gt;3_4935_6656 -->
<g id="edge5" class="edge">
<title>Value_4935_6656&#45;&gt;3_4935_6656</title>
<path fill="none" stroke="black" d="M159.45,-71.7C159.45,-63.98 159.45,-54.71 159.45,-46.11"/>
<polygon fill="black" stroke="black" points="162.95,-46.1 159.45,-36.1 155.95,-46.1 162.95,-46.1"/>
</g>
<!-- 2_4935_8131 -->
<g id="node11" class="node">
<title>2_4935_8131</title>
<ellipse fill="none" stroke="black" cx="311.45" cy="-18" rx="27" ry="18"/>
<text text-anchor="middle" x="311.45" y="-14.3" font-family="Times,serif" font-size="14.00">2</text>
</g>
<!-- Value_4935_8131&#45;&gt;2_4935_8131 -->
<g id="edge8" class="edge">
<title>Value_4935_8131&#45;&gt;2_4935_8131</title>
<path fill="none" stroke="black" d="M311.45,-71.7C311.45,-63.98 311.45,-54.71 311.45,-46.11"/>
<polygon fill="black" stroke="black" points="314.95,-46.1 311.45,-36.1 307.95,-46.1 314.95,-46.1"/>
</g>
</g>
</svg>
